<svg xmlns="http://www.w3.org/2000/svg" width="144.715" height="36.212" viewBox="0 0 144.715 36.212"><defs><style>.a{fill:#1c1c1c;}.b{fill:#f78218;}.c{font-size:16px;font-family:Montserrat-SemiBold, Montserrat;font-weight:600;}</style></defs><g transform="translate(-32.944 -50.25)"><g transform="translate(32.944 50.25)"><path class="a" d="M413.36,181.221l-7.331,11.165,7.247,11.123h-8.848l-7.215-11.127,7.425-11.2Z" transform="translate(-361.727 -168.424)"/><path class="a" d="M147.83,175.512a12.179,12.179,0,0,0-.77,16.376l2.766-2.766a3.257,3.257,0,0,0,.88-3.312c-.019-.082-.032-.163-.048-.244a5.963,5.963,0,1,1,4.155,4.3l-.069-.014a3.257,3.257,0,0,0-3.312.88l-2.767,2.767a12.178,12.178,0,1,0-.836-17.983Z" transform="translate(-133.419 -160.089)"/><path class="b" d="M63.963,62.268,50.631,50.25,32.944,67.062l.115.1s5.1,3.024,8.468.454l9.218-8.762L52.351,60.3a14.426,14.426,0,0,1,11.613,1.971Z" transform="translate(-32.944 -50.25)"/></g><text class="c" transform="translate(91.659 74.321)"><tspan x="0" y="0">PROPERTI</tspan></text></g></svg>